REM DIRINDEX 1\2,1\3,1\4,1\5
REM DIRNAME "folder01","folder02","folder03","folder04","folder05"
TITLE ""
FILE "1Q_t_1488-1500.mp3" MP3
  TRACK 01 AUDIO
    TITLE "3:cjc172_5445"
    INDEX 01 00:00:00
  TRACK 02 AUDIO
    TITLE "0:"
    INDEX 01 00:01:12
  TRACK 03 AUDIO
    TITLE "4:cjc172_5446"
    INDEX 01 00:01:22
  TRACK 04 AUDIO
    TITLE "0:"
    INDEX 01 00:03:58
  TRACK 05 AUDIO
    TITLE "5:cjc172_5447"
    INDEX 01 00:03:63
  TRACK 06 AUDIO
    TITLE "0:"
    INDEX 01 00:08:45
  TRACK 07 AUDIO
    TITLE "3:cjc172_5448"
    INDEX 01 00:09:25
  TRACK 08 AUDIO
    TITLE "0:"
    INDEX 01 00:10:26
  TRACK 09 AUDIO
    TITLE "4:cjc172_5449"
    INDEX 01 00:10:32
  TRACK 10 AUDIO
    TITLE "0:"
    INDEX 01 00:12:49
  TRACK 11 AUDIO
    TITLE "5:cjc172_5450"
    INDEX 01 00:12:55
  TRACK 12 AUDIO
    TITLE "0:"
    INDEX 01 00:17:71
  TRACK 13 AUDIO
    TITLE "3:cjc172_5451"
    INDEX 01 00:18:42
  TRACK 14 AUDIO
    TITLE "0:"
    INDEX 01 00:19:70
  TRACK 15 AUDIO
    TITLE "4:cjc172_5452"
    INDEX 01 00:20:03
  TRACK 16 AUDIO
    TITLE "0:"
    INDEX 01 00:22:59
  TRACK 17 AUDIO
    TITLE "5:cjc172_5453"
    INDEX 01 00:22:67
  TRACK 18 AUDIO
    TITLE "0:"
    INDEX 01 00:26:72
  TRACK 19 AUDIO
    TITLE "3:cjc172_5454"
    INDEX 01 00:27:42
  TRACK 20 AUDIO
    TITLE "0:"
    INDEX 01 00:28:63
  TRACK 21 AUDIO
    TITLE "4:cjc172_5455"
    INDEX 01 00:28:71
  TRACK 22 AUDIO
    TITLE "0:"
    INDEX 01 00:31:48
  TRACK 23 AUDIO
    TITLE "5:cjc172_5456"
    INDEX 01 00:31:56
  TRACK 24 AUDIO
    TITLE "0:"
    INDEX 01 00:35:50
  TRACK 25 AUDIO
    TITLE "3:cjc172_5457"
    INDEX 01 00:36:22
  TRACK 26 AUDIO
    TITLE "0:"
    INDEX 01 00:37:35
  TRACK 27 AUDIO
    TITLE "4:cjc172_5458"
    INDEX 01 00:37:43
  TRACK 28 AUDIO
    TITLE "0:"
    INDEX 01 00:40:37
  TRACK 29 AUDIO
    TITLE "5:cjc172_5459"
    INDEX 01 00:40:43
  TRACK 30 AUDIO
    TITLE "0:"
    INDEX 01 00:44:62
  TRACK 31 AUDIO
    TITLE "3:cjc172_5460"
    INDEX 01 00:45:36
  TRACK 32 AUDIO
    TITLE "0:"
    INDEX 01 00:46:32
  TRACK 33 AUDIO
    TITLE "4:cjc172_5461"
    INDEX 01 00:46:42
  TRACK 34 AUDIO
    TITLE "0:"
    INDEX 01 00:47:57
  TRACK 35 AUDIO
    TITLE "5:cjc172_5462"
    INDEX 01 00:47:63
  TRACK 36 AUDIO
    TITLE "0:"
    INDEX 01 00:53:14
  TRACK 37 AUDIO
    TITLE "3:cjc172_5463"
    INDEX 01 00:53:59
  TRACK 38 AUDIO
    TITLE "0:"
    INDEX 01 00:55:05
  TRACK 39 AUDIO
    TITLE "4:cjc172_5464"
    INDEX 01 00:55:15
  TRACK 40 AUDIO
    TITLE "0:"
    INDEX 01 00:59:27
  TRACK 41 AUDIO
    TITLE "5:cjc172_5465"
    INDEX 01 00:59:35
  TRACK 42 AUDIO
    TITLE "0:"
    INDEX 01 01:05:22
  TRACK 43 AUDIO
    TITLE "3:cjc172_5466"
    INDEX 01 01:05:69
  TRACK 44 AUDIO
    TITLE "0:"
    INDEX 01 01:07:07
  TRACK 45 AUDIO
    TITLE "4:cjc172_5467"
    INDEX 01 01:07:15
  TRACK 46 AUDIO
    TITLE "0:"
    INDEX 01 01:09:15
  TRACK 47 AUDIO
    TITLE "5:cjc172_5468"
    INDEX 01 01:09:21
  TRACK 48 AUDIO
    TITLE "0:"
    INDEX 01 01:14:03
  TRACK 49 AUDIO
    TITLE "3:cjc172_5469"
    INDEX 01 01:14:50
  TRACK 50 AUDIO
    TITLE "0:"
    INDEX 01 01:15:69
  TRACK 51 AUDIO
    TITLE "4:cjc172_5470"
    INDEX 01 01:16:00
  TRACK 52 AUDIO
    TITLE "0:"
    INDEX 01 01:18:50
  TRACK 53 AUDIO
    TITLE "5:cjc172_5471"
    INDEX 01 01:18:55
  TRACK 54 AUDIO
    TITLE "0:"
    INDEX 01 01:23:21
  TRACK 55 AUDIO
    TITLE "3:cjc172_5472"
    INDEX 01 01:23:64
  TRACK 56 AUDIO
    TITLE "0:"
    INDEX 01 01:25:01
  TRACK 57 AUDIO
    TITLE "4:cjc172_5473"
    INDEX 01 01:25:10
  TRACK 58 AUDIO
    TITLE "0:"
    INDEX 01 01:26:63
  TRACK 59 AUDIO
    TITLE "5:cjc172_5474"
    INDEX 01 01:26:69
  TRACK 60 AUDIO
    TITLE "0:"
    INDEX 01 01:31:60
  TRACK 61 AUDIO
    TITLE "3:cjc172_5475"
    INDEX 01 01:32:34
  TRACK 62 AUDIO
    TITLE "0:"
    INDEX 01 01:33:39
  TRACK 63 AUDIO
    TITLE "4:cjc172_5476"
    INDEX 01 01:33:47
  TRACK 64 AUDIO
    TITLE "0:"
    INDEX 01 01:36:28
  TRACK 65 AUDIO
    TITLE "5:cjc172_5477"
    INDEX 01 01:36:36
  TRACK 66 AUDIO
    TITLE "0:"
    INDEX 01 01:40:30
  TRACK 67 AUDIO
    TITLE "3:cjc172_5478"
    INDEX 01 01:41:00
  TRACK 68 AUDIO
    TITLE "0:"
    INDEX 01 01:42:09
  TRACK 69 AUDIO
    TITLE "4:cjc172_5479"
    INDEX 01 01:42:17
  TRACK 70 AUDIO
    TITLE "0:"
    INDEX 01 01:46:05
  TRACK 71 AUDIO
    TITLE "5:cjc172_5480"
    INDEX 01 01:46:11
  TRACK 72 AUDIO
    TITLE "0:"
    INDEX 01 01:50:54
  TRACK 73 AUDIO
    TITLE "2:cjc172_5481"
    INDEX 01 01:51:22
  TRACK 74 AUDIO
    TITLE "0:"
    INDEX 01 01:52:29
  TRACK 75 AUDIO
    TITLE "3:cjc172_5482"
    INDEX 01 01:52:72
  TRACK 76 AUDIO
    TITLE "0:"
    INDEX 01 01:54:14
  TRACK 77 AUDIO
    TITLE "4:cjc172_5483"
    INDEX 01 01:54:22
  TRACK 78 AUDIO
    TITLE "0:"
    INDEX 01 01:55:33
  TRACK 79 AUDIO
    TITLE "5:cjc172_5484"
    INDEX 01 01:55:39
  TRACK 80 AUDIO
    TITLE "0:"
    INDEX 01 02:00:07
